<mxfile host="app.diagrams.net" modified="2024-02-29T15:30:57.889Z" agent="Mozilla/5.0 (Windows NT 10.0; Win64; x64) AppleWebKit/537.36 (KHTML, like Gecko) Chrome/122.0.0.0 Safari/537.36" etag="Bs__4vm5l9Ew1is0otd3" version="23.1.8" type="github">
  <diagram name="Page-1" id="g_YAJaTZ-J7NuBH2JF9y">
    <mxGraphModel dx="724" dy="360" grid="1" gridSize="10" guides="1" tooltips="1" connect="1" arrows="1" fold="1" page="1" pageScale="1" pageWidth="827" pageHeight="1169" math="0" shadow="0">
      <root>
        <mxCell id="0" />
        <mxCell id="1" parent="0" />
        <mxCell id="5nkykQ_UUvBOPxLqUqsq-1" value="Credentials" style="image;aspect=fixed;html=1;points=[];align=center;fontSize=12;image=img/lib/azure2/security/Key_Vaults.svg;" vertex="1" parent="1">
          <mxGeometry x="510" y="260" width="68" height="68" as="geometry" />
        </mxCell>
        <mxCell id="5nkykQ_UUvBOPxLqUqsq-5" style="edgeStyle=orthogonalEdgeStyle;rounded=0;orthogonalLoop=1;jettySize=auto;html=1;" edge="1" parent="1" source="5nkykQ_UUvBOPxLqUqsq-2" target="5nkykQ_UUvBOPxLqUqsq-4">
          <mxGeometry relative="1" as="geometry" />
        </mxCell>
        <mxCell id="5nkykQ_UUvBOPxLqUqsq-6" style="edgeStyle=orthogonalEdgeStyle;rounded=0;orthogonalLoop=1;jettySize=auto;html=1;" edge="1" parent="1" source="5nkykQ_UUvBOPxLqUqsq-2" target="5nkykQ_UUvBOPxLqUqsq-1">
          <mxGeometry relative="1" as="geometry" />
        </mxCell>
        <mxCell id="5nkykQ_UUvBOPxLqUqsq-2" value="Orchestrates&lt;div&gt;&lt;br/&gt;&lt;/div&gt;" style="image;aspect=fixed;html=1;points=[];align=center;fontSize=12;image=img/lib/azure2/databases/Data_Factory.svg;" vertex="1" parent="1">
          <mxGeometry x="380" y="172" width="68" height="68" as="geometry" />
        </mxCell>
        <mxCell id="5nkykQ_UUvBOPxLqUqsq-8" style="edgeStyle=orthogonalEdgeStyle;rounded=0;orthogonalLoop=1;jettySize=auto;html=1;" edge="1" parent="1" source="5nkykQ_UUvBOPxLqUqsq-3" target="5nkykQ_UUvBOPxLqUqsq-1">
          <mxGeometry relative="1" as="geometry">
            <Array as="points">
              <mxPoint x="540" y="354" />
            </Array>
          </mxGeometry>
        </mxCell>
        <mxCell id="5nkykQ_UUvBOPxLqUqsq-3" value="Data transformations" style="image;aspect=fixed;html=1;points=[];align=center;fontSize=12;image=img/lib/azure2/analytics/Azure_Databricks.svg;" vertex="1" parent="1">
          <mxGeometry x="382.6" y="320" width="62.8" height="68" as="geometry" />
        </mxCell>
        <mxCell id="5nkykQ_UUvBOPxLqUqsq-4" value="Datalake" style="image;aspect=fixed;html=1;points=[];align=center;fontSize=12;image=img/lib/azure2/storage/Storage_Accounts.svg;" vertex="1" parent="1">
          <mxGeometry x="250" y="268" width="65" height="52" as="geometry" />
        </mxCell>
        <mxCell id="5nkykQ_UUvBOPxLqUqsq-7" style="edgeStyle=orthogonalEdgeStyle;rounded=0;orthogonalLoop=1;jettySize=auto;html=1;entryX=0.468;entryY=0.992;entryDx=0;entryDy=0;entryPerimeter=0;" edge="1" parent="1" source="5nkykQ_UUvBOPxLqUqsq-3" target="5nkykQ_UUvBOPxLqUqsq-4">
          <mxGeometry relative="1" as="geometry" />
        </mxCell>
        <mxCell id="5nkykQ_UUvBOPxLqUqsq-9" style="edgeStyle=orthogonalEdgeStyle;rounded=0;orthogonalLoop=1;jettySize=auto;html=1;entryX=0.513;entryY=0.018;entryDx=0;entryDy=0;entryPerimeter=0;" edge="1" parent="1" source="5nkykQ_UUvBOPxLqUqsq-2" target="5nkykQ_UUvBOPxLqUqsq-3">
          <mxGeometry relative="1" as="geometry" />
        </mxCell>
      </root>
    </mxGraphModel>
  </diagram>
</mxfile>
